<svg xmlns="http://www.w3.org/2000/svg" viewBox="600 200 900 1400" width="32" height="32">
  <defs>
    <linearGradient id="grad1" x1="0%" y1="0%" x2="100%" y2="100%">
      <stop offset="0%" style="stop-color:#3B82F6;stop-opacity:1" />
      <stop offset="100%" style="stop-color:#1D4ED8;stop-opacity:1" />
    </linearGradient>
  </defs>
  <!-- Main D shape from logo component -->
  <path 
    fill="url(#grad1)" 
    d="M680 285c-9.7 1.2-15.4 3.8-41.2 18.7-13.9 8-28 16.1-31.3 18-3.3 1.8-6.7 3.8-7.5 4.3-1.8 1.1-20.9 12.1-38.5 22.2-7.1 4.1-18.8 10.9-26 15-7.1 4.1-19.5 11.2-27.5 15.8s-19.2 11.1-25 14.5-11.2 6.5-12 6.8c-.8.4-2.8 1.6-4.5 2.7-1.6 1.1-3.7 2.3-4.5 2.7-5.6 2.9-15 8.6-15.9 9.7s-.6 1.9 1.6 3.6c2.6 2 25.3 15.4 34.8 20.5 2.2 1.1 9.6 5.4 16.5 9.4 6.9 4.1 17.2 10.1 23 13.5 5.7 3.3 11.3 6.6 12.5 7.3 1.1.7 2.7 1.5 3.5 1.9s8 4.6 16 9.2c8 4.7 20.1 11.8 27 15.7 6.9 4 17.6 10.3 23.8 13.9 6.3 3.6 11.7 6.6 12.1 6.6s2.5 1.3 4.7 3c2.1 1.6 4.3 3 4.8 3 .4 0 5.6 2.9 11.5 6.4 5.8 3.5 13.3 7.9 16.6 9.7s11.2 6.4 17.5 10.2c6.3 3.7 12.7 7.1 14.2 7.4 2.8.6 4.6-.3 25.1-12.4 5.9-3.4 10.9-6.3 11.2-6.3.2 0 4.6-2.5 9.7-5.6 5-3.1 10.1-6 11.3-6.5 1.1-.6 2.9-1.5 4-2.2 1.2-.7 7-4.1 13-7.6 6.1-3.5 16.3-9.5 22.7-13.2 6.4-3.8 11.9-6.9 12.2-6.9s5-2.7 10.4-6c5.5-3.3 10.4-6 10.8-6 2-.1 6.6-4.8 6.2-6.5-.1-.9-3-3.1-6.3-4.9s-12.1-6.8-19.5-11.3c-7.4-4.4-14.3-8.3-15.2-8.6-1.9-.7-10.2 3.4-26.8 13.2-5.8 3.4-11.4 6.7-12.5 7.3-1.1.7-9 5.2-17.5 10.1-35.6 20.6-40.7 23.5-42.9 24.2-3.7 1.1-14.1.7-17-.8z" 
  />
</svg>
